# xmcd CD database file
#
# Track frame offsets:
#	150
#	14199
#	32859
#	42325
#	58854
#	90844
#	102403
#	117652
#	129961
#	143945
#	156983
#	175885
#	195173
#	209736
#	225859
#	238430
#	252468
#	273004
#	288050
#	303002
#	324246
#	340350
#
# Disc length: 4709 seconds
#
# Revision: 0
# Processed by: cddbd v1.5.2PL0 Copyright (c) Steve Scherf et al.
# Submitted via: ACXtractor (MTCDDB.DLL V2003.07.15)
#
DISCID=3c126316
DTITLE=Alan Jackson - Under the Influence and Who I Am
DYEAR=2003
DGENRE=Country
TTITLE0=Pop Top
TTITLE1=Farwell Party
TTITLE2=Kiss an Angel Good Morning
TTITLE3=Right in the Palm of your Hand
TTITLE4=The Blues Man
TTITLE5=Revenooer Man
TTITLE6=My Own Kind of Hat
TTITLE7=She started Liking cheatin' Songs
TTITLE8=The Way I Am
TTITLE9=It must be Love
TTITLE10=Once You've had the Best
TTITLE11=Marganitaville ( with jimmy Buffett)
TTITLE12=Summertime Blues
TTITLE13=Hole in the Wall
TTITLE14=Who I Am
TTITLE15=You Can't give up on Love
TTITLE16=Song for Life
TTITLE17=Thank God for the Radio
TTITLE18=All American country Boy
TTITLE19=Job Description
TTITLE20=If I had You
TTITLE21=Let's get back to You and Me
EXTD=ID3G:   2 YEAR: 2003
EXTT0=
EXTT1=
EXTT2=
EXTT3=
EXTT4=
EXTT5=
EXTT6=
EXTT7=
EXTT8=
EXTT9=
EXTT10=
EXTT11=
EXTT12=
EXTT13=
EXTT14=
EXTT15=
EXTT16=
EXTT17=
EXTT18=
EXTT19=
EXTT20=
EXTT21=
PLAYORDER=
